<svg id="Layer_1" data-name="Layer 1" xmlns="http://www.w3.org/2000/svg" viewBox="0 0 1200 348.57"><defs><style>.cls-1,.cls-2{fill:#aeaeaf;}.cls-2,.cls-3{fill-rule:evenodd;}.cls-3{fill:#bb162b;}</style></defs><title>Main logo for black</title><rect class="cls-1" x="154.25" y="315.65" width="210.01" height="32.92"/><polygon class="cls-2" points="179.82 22.54 125.64 62.95 162.63 112.55 140.09 129.36 103.1 79.77 48.92 120.19 32.11 97.65 163 0 179.82 22.54"/><polygon class="cls-2" points="287.43 166.79 233.25 207.21 196.25 157.62 173.72 174.43 210.71 224.02 156.53 264.44 173.35 286.98 304.24 189.33 287.43 166.79"/><polygon class="cls-3" points="262.21 132.99 241.84 148.19 223.05 123 203.44 96.73 184.66 71.54 205.03 56.34 188.22 33.81 145.31 65.82 162.96 89.48 182.3 115.41 137.23 149.03 117.89 123.1 100.24 99.44 57.33 131.45 74.14 153.99 94.51 138.79 113.3 163.97 114.7 165.84 0 251.41 16.81 273.94 131.51 188.38 132.9 190.25 151.69 215.44 131.31 230.64 148.13 253.17 191.04 221.16 173.39 197.5 154.04 171.57 199.12 137.95 218.46 163.87 236.11 187.54 279.02 155.52 262.21 132.99"/><path class="cls-1" d="M535.38,194.41V130.65H481v63.76H450.8V43.62H481v57.52h54.36V43.62H565.8V194.41Z"/><path class="cls-1" d="M680.58,42.35h-14L601.3,190.13v4.29h31.64L673.49,92.53,714,194.42H745.5v-4.29Z"/><path class="cls-1" d="M1003.35,42.35h-14L924.07,190.13v4.29H955.7L996.25,92.53l40.55,101.89h31.47v-4.29Z"/><path class="cls-1" d="M898.82,189.68v4.52H866.37l-29.2-49.76H811.81V194.2H781.39V43.41c20.28,0,40.36-.22,60.64,0,32.45,0,50.1,25,50.1,51.7,0,19.17-9.13,36-25.36,44.37Zm-57-71.74c12.78,0,21.09-10.55,20.89-23.48,0-12.71-7.91-22.83-20.89-22.83H811.4v46.31Z"/><path class="cls-1" d="M1200,144.44c0,32.74-25,52.13-54.36,52.13s-52.93-19.39-52.93-52.13V126.13h28.19v17.66c0,16.16,10.34,24.13,24.74,24.13s23.94-8.4,23.94-24.13V71.41h-25.35V43.62H1200Z"/><path class="cls-1" d="M492.34,264.69H462.21v22.69h29.1v7.23h-29.1v24.56h31.16v7.63h-39V257.46h38Z"/><path class="cls-1" d="M586.25,284.9l9.13-14.76,8.4-12.68h8.3v1.09l-21.26,31.7,23.69,35.46v1.09H606L595.2,310.55l-9-14.46H586l-8.77,14.27L566.29,326.8H557.7v-1.19l23.7-35.36-21.27-31.6v-1.19h8.4L577,270.34l9,14.56Z"/><path class="cls-1" d="M682,326.7V257.36c8.58,0,17.53-.1,26.11,0,14,0,22.85,10.5,22.85,23.77s-9.05,23.58-22.85,23.58H689.76v22Zm26.11-29.42c8.67,0,15.3-6.73,15.3-16.35,0-9.4-6.34-16.24-15.3-16.24-6-.1-12.22,0-18.46,0v32.59Z"/><path class="cls-1" d="M851.66,325.61v1.19h-8.21l-18.09-25.45H808.29V326.8h-7.84V257.36h26c13.43,0,22.29,9.71,22.29,22.29,0,10.7-6.44,18.22-15.58,20.6Zm-25.18-31.1c8.3,0,14.73-5.95,14.73-15s-6.25-14.86-14.73-14.86H808.19v29.82Z"/><path class="cls-1" d="M958.9,264.69H928.78v22.69h29.1v7.23h-29.1v24.56h31.15v7.63h-39V257.46h38Z"/><path class="cls-1" d="M1034.44,307.88c.47,9.32,10.54,12.88,18.56,12.88,7.83-.3,17.44-3.17,17.72-13.27,0-11.2-9.89-11.4-18.75-12.68-11.84-1.29-23.78-4.56-23.78-18.43,0-13.67,12.22-20.11,23.69-20.11,11.29-.3,24,5.55,24.43,19H1069c-.75-8.81-9.51-11.59-17-11.59-7.19.3-16.14,3.47-16.14,12.58,0,10.3,9.42,10.7,17.35,11.79,13,1.58,25.09,4.06,25.09,19.42,0,14.85-13.43,20.2-25.28,20.5-12.12.3-25.74-5.85-26.21-20.11Z"/><path class="cls-1" d="M1152.5,307.88c.47,9.32,10.54,12.88,18.56,12.88,7.84-.3,17.44-3.17,17.72-13.27,0-11.2-9.88-11.4-18.74-12.68-11.85-1.29-23.79-4.56-23.79-18.43,0-13.67,12.22-20.11,23.69-20.11,11.29-.3,24,5.55,24.43,19h-7.27c-.75-8.81-9.51-11.59-17-11.59-7.19.3-16.14,3.47-16.14,12.58,0,10.3,9.42,10.7,17.35,11.79,13,1.58,25.09,4.06,25.09,19.42,0,14.85-13.43,20.2-25.28,20.5-12.12.3-25.74-5.85-26.2-20.11Z"/></svg>